<svg width="40" height="40" viewBox="0 0 40 40" fill="white" xmlns="http://www.w3.org/2000/svg">
<path d="M39.9871 19.6973C39.8967 18.6172 39.3464 17.6263 38.4773 16.9786L36.1223 15.2236V11.3507C36.1223 11.0247 35.858 10.7604 35.532 10.7604C35.2059 10.7604 34.9416 11.0247 34.9416 11.3507V14.3438L33.761 13.4639V5.62103C33.761 4.77963 33.4062 3.96798 32.7877 3.39418C32.1607 2.81268 31.3449 2.5283 30.4905 2.59237C28.918 2.71091 27.6862 4.06306 27.6862 5.67054V8.93667L26.5056 8.05686V5.62103C26.5056 4.45857 26.9704 3.37498 27.8144 2.56986C28.6575 1.76561 29.7626 1.35278 30.9274 1.40779C33.1784 1.51397 34.9416 3.3956 34.9416 5.69156V8.83498C34.9416 9.16099 35.2059 9.4253 35.5319 9.4253C35.8579 9.4253 36.1222 9.16099 36.1222 8.83498V5.69156C36.1222 2.76411 33.8648 0.36442 30.983 0.228489C29.4936 0.15828 28.0784 0.686342 26.9995 1.71563C25.9196 2.74578 25.3249 4.13272 25.3249 5.62111V7.17704L21.4568 4.44661C20.7616 3.95609 19.8846 3.87431 19.1107 4.2278C18.3368 4.58128 17.8245 5.29777 17.7402 6.14437L17.0761 12.8096L15.3376 14.6573C15.1142 14.8947 15.1256 15.2683 15.363 15.4918C15.6005 15.7151 15.9741 15.7038 16.1975 15.4663L22.9873 8.24969C23.4105 7.79995 24.1031 7.73895 24.5983 8.1081L25.6933 8.92416L14.705 20.603L13.8231 19.5693C13.4202 19.097 13.4372 18.4001 13.8624 17.948L14.4728 17.2992C14.6961 17.0618 14.6848 16.6882 14.4473 16.4648C14.2099 16.2413 13.8362 16.2527 13.6129 16.4902L13.0025 17.1389C12.1639 18.0302 12.1305 19.4045 12.9249 20.3355L17.5405 25.7454H10.6622C10.382 24.1606 8.99576 22.9527 7.33177 22.9527H6.38159C5.79827 22.9527 5.32373 23.4272 5.32373 24.0106V31.6969C5.32373 32.2803 5.79827 32.7548 6.38159 32.7548H7.33185C8.99584 32.7548 10.3821 31.5469 10.6623 29.9621H21.1383L23.5087 32.7404C24.202 33.553 25.2119 34.0365 26.2796 34.067C26.3155 34.068 26.3512 34.0685 26.3869 34.0685C27.4165 34.0685 28.408 33.6464 29.1216 32.9006L38.9502 22.629C39.6995 21.846 40.0774 20.7774 39.9871 19.6973ZM9.53421 29.3719C9.53421 30.5863 8.54625 31.5743 7.33185 31.5743H6.50429V24.1334H7.33177C8.54618 24.1334 9.53414 25.1214 9.53414 26.3358V29.3719H9.53421ZM28.8668 5.67054C28.8668 4.67699 29.6191 3.84204 30.5793 3.76971C31.102 3.73004 31.6015 3.9043 31.9848 4.25983C32.3633 4.61088 32.5803 5.10698 32.5803 5.62095V12.584L28.8668 9.81656V5.67054ZM22.1274 7.44056L18.403 11.399L18.915 6.26133C18.9572 5.83741 19.2137 5.47865 19.6013 5.30155C19.9887 5.12446 20.428 5.16554 20.7761 5.41112L22.8852 6.89935C22.6068 7.02521 22.3484 7.20569 22.1274 7.44056ZM10.7149 28.7816V26.9261H18.5479L20.1309 28.7816H10.7149ZM38.0972 21.8129L28.2686 32.0845C27.7605 32.6155 27.0493 32.9081 26.3132 32.887C25.8453 32.8736 25.3939 32.7335 25.0043 32.4893L34.7804 22.222C35.0052 21.9858 34.996 21.6122 34.7599 21.3873C34.5238 21.1626 34.1501 21.1717 33.9253 21.4078L24.1504 31.6739L15.4759 21.5066L26.6462 9.63412L37.4614 17.694L35.6619 19.5839C35.4371 19.82 35.4462 20.1936 35.6824 20.4185C35.7967 20.5273 35.9431 20.5813 36.0894 20.5813C36.2453 20.5813 36.4009 20.5199 36.517 20.398L38.3298 18.4941C38.6019 18.8729 38.7709 19.3217 38.8105 19.7958C38.8727 20.5389 38.6126 21.2741 38.0972 21.8129Z" fill="white"/>
<path d="M27.0634 19.8353L27.5403 19.3584C28.4619 18.4367 28.4619 16.9371 27.5403 16.0155L27.068 15.5432C26.8978 15.373 26.6715 15.2793 26.4309 15.2793C26.1903 15.2793 25.964 15.373 25.7938 15.5432L25.1191 16.2179C24.7561 16.581 24.5366 17.0339 24.4596 17.5058C23.6145 17.1727 22.6141 17.3468 21.932 18.0289L20.3274 19.6335C19.9762 19.9847 19.9761 20.5563 20.3274 20.9077L21.4968 22.077C21.9551 22.5354 22.5572 22.7645 23.1593 22.7645C23.7613 22.7645 24.3634 22.5354 24.8217 22.077L26.2286 20.6702L27.9882 22.4298C28.1034 22.545 28.2545 22.6027 28.4056 22.6027C28.5566 22.6027 28.7078 22.5451 28.823 22.4298C29.0535 22.1993 29.0535 21.8255 28.823 21.595L27.0634 19.8353ZM25.954 17.0527L26.4309 16.5758L26.7055 16.8503C27.1668 17.3116 27.1668 18.0622 26.7055 18.5235L26.2286 19.0004L25.954 18.7259C25.4927 18.2646 25.4927 17.514 25.954 17.0527ZM23.9868 21.2422C23.5305 21.6984 22.7879 21.6984 22.3316 21.2422L21.36 20.2705L22.7668 18.8636C23.2231 18.4074 23.9657 18.4073 24.4221 18.8636L25.3937 19.8353L23.9868 21.2422Z" fill="white"/>
<path d="M3.62446 29.621C2.92796 29.621 2.36133 30.1876 2.36133 30.8841V32.1646C2.36133 32.4906 2.62563 32.7549 2.95165 32.7549C3.27766 32.7549 3.54197 32.4906 3.54197 32.1646V30.8841C3.54197 30.8386 3.57896 30.8016 3.62446 30.8016C3.95047 30.8016 4.21478 30.5373 4.21478 30.2113C4.21478 29.8853 3.95047 29.621 3.62446 29.621Z" fill="white"/>
<path d="M2.95165 34.1899C2.62563 34.1899 2.36133 34.4542 2.36133 34.7803V38.9853C2.36133 39.3113 2.62563 39.5756 2.95165 39.5756C3.27766 39.5756 3.54197 39.3113 3.54197 38.9853V34.7803C3.54197 34.4542 3.27766 34.1899 2.95165 34.1899Z" fill="white"/>
<path d="M3.62441 25.3351C1.6259 25.3351 0 26.961 0 28.9595V39.1874C0 39.5134 0.264306 39.7777 0.590321 39.7777C0.916336 39.7777 1.18064 39.5134 1.18064 39.1874V28.9595C1.18064 27.612 2.27691 26.5157 3.62441 26.5157C3.95043 26.5157 4.21474 26.2514 4.21474 25.9254C4.21474 25.5994 3.95043 25.3351 3.62441 25.3351Z" fill="white"/>
</svg>
