<svg width="40" height="40" viewBox="0 0 40 40" fill="white" xmlns="http://www.w3.org/2000/svg">
<path d="M39.3902 29.3329C37.8161 29.2271 36.236 29.2494 34.6654 29.3995V28.5444C35.1218 28.3949 35.507 28.0823 35.7474 27.6665C36.0888 27.0758 36.0826 26.3463 35.7313 25.7614C35.447 25.2874 35.1354 24.8302 34.7981 24.3923C34.5999 24.1555 34.307 24.0188 33.9982 24.0188C33.6894 24.0188 33.3965 24.1555 33.1983 24.3923C32.8612 24.8299 32.5496 25.2867 32.265 25.7601C31.9137 26.3453 31.9076 27.075 32.249 27.6659C32.4895 28.0822 32.8753 28.395 33.3322 28.5445V29.5444C30.1532 29.9022 27.0843 30.9219 24.3233 32.538C22.0538 32.1152 19.8444 31.417 17.744 30.459C19.1616 29.9109 20.5214 29.2239 21.8036 28.4079L21.8702 28.3665C21.9462 28.3205 22.0235 28.2732 22.0828 28.2332C31.5031 22.0792 38.9382 22.6672 39.2516 22.6978C39.6182 22.7309 39.9423 22.4606 39.9755 22.0939C40.0086 21.7272 39.7382 21.4031 39.3715 21.37C39.1469 21.3493 35.434 21.0553 29.9993 22.8785V21.2567C30.8866 21.0619 31.6527 20.5063 32.1137 19.7235C32.7618 18.6376 32.7975 17.2925 32.2077 16.1739C31.6663 15.1647 31.0688 14.1866 30.4179 13.2442C30.1755 12.8821 29.7684 12.6647 29.3327 12.6647C28.897 12.6647 28.4899 12.8821 28.2475 13.2442C27.5967 14.1866 26.9991 15.1647 26.4577 16.1739C25.868 17.2925 25.9036 18.6376 26.5517 19.7235C27.0127 20.5063 27.7787 21.0618 28.6661 21.2567V23.3577C27.7736 23.699 26.8437 24.095 25.8804 24.5576C24.8838 22.9175 23.0812 21.9411 21.1629 22.0024C19.2447 22.0637 17.5081 23.1532 16.6182 24.8536C15.1264 24.0547 13.5842 23.3537 12.0013 22.7552V20.9493C12.6395 20.7627 13.1836 20.3418 13.5245 19.7708C14.102 18.8273 14.1561 17.6538 13.6679 16.6612C13.2558 15.8349 12.7998 15.0311 12.302 14.2535C12.0967 13.9142 11.729 13.7069 11.3324 13.7069C10.9358 13.7069 10.5681 13.9142 10.3629 14.2535C9.86635 15.031 9.41195 15.8348 9.00169 16.6612C8.51424 17.6543 8.56932 18.8278 9.14769 19.7708C9.48796 20.3412 10.0309 20.7621 10.6682 20.9493V22.2825C9.14355 21.7702 7.58419 21.3674 6.00211 21.0774V20.3341C6.40878 20.1778 6.75343 19.8932 6.98403 19.5235C7.40976 18.8296 7.45046 17.966 7.09199 17.2351C6.81366 16.6763 6.50549 16.1329 6.16873 15.6073C5.97985 15.3332 5.66832 15.1695 5.33547 15.1695C5.00262 15.1695 4.69109 15.3332 4.50221 15.6073C4.1656 16.1326 3.85744 16.6755 3.57895 17.2338C3.22048 17.9649 3.26125 18.8286 3.68691 19.5228C3.91735 19.8927 4.262 20.1775 4.66883 20.334V20.8673C3.34507 20.6737 2.00577 20.6067 0.669288 20.6673C0.431112 20.6848 0.220355 20.8279 0.116305 21.0428C0.0122544 21.2577 0.030846 21.5118 0.164971 21.7093C0.299096 21.9069 0.528445 22.0179 0.766621 22.0005C1.51255 21.9465 8.31372 21.6132 17.0048 26.5799C17.9399 27.1129 18.9108 27.5807 19.9104 27.9798C18.8019 28.5882 17.642 29.0982 16.4442 29.5036C15.765 28.3517 15.063 27.3265 14.5597 26.6279C14.2778 26.2342 13.8234 26.0007 13.3392 26.0007C12.855 26.0007 12.4005 26.2343 12.1186 26.6279C11.9433 26.8719 11.7413 27.1612 11.5266 27.4745C8.02118 26.2662 4.3109 25.765 0.610545 25.9999C0.372369 26.0209 0.163487 26.1673 0.0625611 26.384C-0.0383647 26.6007 -0.0160236 26.8548 0.121226 27.0506C0.258476 27.2464 0.489699 27.3541 0.727875 27.3331C4.126 27.1321 7.5317 27.5684 10.7694 28.6196C10.4654 29.1008 10.1541 29.6194 9.8555 30.1527C9.14214 31.4189 9.16042 32.9699 9.90346 34.2189C10.5004 35.247 11.5288 35.9514 12.7031 36.1367V38.0985C10.9998 38.4552 9.2647 38.6386 7.52444 38.6457L0.66921 38.665C0.301049 38.665 0.00264616 38.9634 0.00264616 39.3316C0.00264616 39.6998 0.301049 39.9982 0.66921 39.9982L7.52639 39.9789C9.48124 39.9714 11.4295 39.7522 13.337 39.325C13.3477 39.325 13.357 39.3316 13.3684 39.3316C13.4715 39.3298 13.5727 39.3035 13.6637 39.255C15.804 38.7571 17.8699 37.9805 19.8083 36.9452C21.3151 36.1263 22.7716 35.2179 24.1698 34.2248C24.3758 34.0749 24.5884 33.9375 24.8117 33.7996C30.7724 29.9687 39.1867 30.656 39.2708 30.6666C39.6391 30.6995 39.9645 30.4276 39.9973 30.0593C40.0302 29.691 39.7585 29.3659 39.3902 29.3329ZM27.6935 19.0401C27.2794 18.3568 27.2576 17.5054 27.6362 16.8017C28.2288 15.6825 28.8934 14.6619 29.3193 14.002C29.9408 14.9028 30.5116 15.8374 31.0291 16.8017C31.4077 17.5054 31.3859 18.3568 30.9718 19.0401C30.6397 19.6336 30.0127 20.0011 29.3327 20.0011C28.6526 20.0011 28.0257 19.6336 27.6935 19.0401ZM5.85205 18.8182C5.74769 19.0082 5.55201 19.1305 5.33547 19.1408C5.11885 19.1304 4.92325 19.0082 4.81889 18.8182C4.63492 18.5156 4.61836 18.14 4.77491 17.8223C4.95957 17.449 5.15752 17.095 5.33555 16.7958C5.5135 17.095 5.71152 17.449 5.89619 17.823C6.05257 18.1404 6.03601 18.5158 5.85205 18.8182ZM10.2769 19.0675C9.94017 18.516 9.90924 17.8306 10.1948 17.251C10.5808 16.4677 11.0054 15.7446 11.3347 15.2159C11.664 15.7446 12.0886 16.4678 12.4746 17.251C12.7602 17.8306 12.7293 18.516 12.3925 19.0675C12.1866 19.4612 11.779 19.7079 11.3347 19.7079C10.8904 19.708 10.4828 19.4612 10.2769 19.0675ZM17.79 25.4887C18.478 24.1668 19.8433 23.3363 21.3336 23.3337C22.6894 23.3323 23.9531 24.0198 24.6886 25.1588C23.6153 25.7221 22.5088 26.3647 21.3749 27.1039C20.1339 26.6741 18.9341 26.1335 17.79 25.4887ZM13.3345 34.8569C12.3939 34.8569 11.5244 34.3558 11.0528 33.5418V33.5438C10.551 32.7016 10.5389 31.6551 11.0208 30.8015C11.6812 29.6297 12.4075 28.4963 13.1958 27.4066C13.2271 27.3608 13.279 27.3335 13.3345 27.3335C13.3899 27.3335 13.4418 27.3608 13.4731 27.4066C14.2615 28.4957 14.9876 29.6285 15.6482 30.7995C16.1302 31.6533 16.1179 32.6996 15.6162 33.5419C15.1447 34.3558 14.2752 34.8569 13.3345 34.8569ZM19.1785 35.7715C17.549 36.6408 15.8235 37.3167 14.037 37.7853V36.1235C15.1825 35.9218 16.1809 35.2252 16.7654 34.2197C17.2107 33.4677 17.4019 32.5924 17.3107 31.7233C19.066 32.5079 20.8902 33.1283 22.76 33.5765C21.6048 34.3692 20.4093 35.1019 19.1785 35.7715ZM33.9988 27.3133C33.7638 27.3133 33.5434 27.1989 33.4082 27.0065C33.3042 26.8312 33.3065 26.6124 33.4142 26.4393C33.6062 26.1146 33.8141 25.8067 33.9988 25.5507C34.1828 25.8067 34.3914 26.1146 34.5834 26.4399C34.691 26.6128 34.6933 26.8312 34.5894 27.0065C34.4542 27.1989 34.2339 27.3133 33.9988 27.3133Z" fill="white"/>
<path d="M10.3349 10.6684H12.0354C12.1989 11.8133 13.1779 12.6649 14.3345 12.6682H20.3338C21.5703 12.6679 22.5919 11.7031 22.6626 10.4686C22.7334 9.23418 21.8288 8.15891 20.6005 8.01736C20.2881 6.46036 18.9222 5.33892 17.3342 5.33564C17.0284 5.33924 16.7246 5.38548 16.4316 5.47297C15.9026 4.08821 14.5205 3.22112 13.0435 3.34751C11.5665 3.4739 10.3518 4.56307 10.0657 6.01759C8.83673 6.15914 7.93199 7.23527 8.00347 8.4702C8.07495 9.70514 9.09787 10.6696 10.3349 10.6684ZM17.3341 6.66885C18.4385 6.66885 19.3339 7.56421 19.3339 8.66862C19.3339 9.03678 19.6323 9.33518 20.0004 9.33518H20.3338C20.886 9.33518 21.3337 9.78286 21.3337 10.3351C21.3351 10.6007 21.2302 10.8559 21.0424 11.0437C20.8546 11.2314 20.5994 11.3364 20.3338 11.335H14.3345C13.7823 11.335 13.3346 10.8873 13.3346 10.3351C13.3346 9.78286 13.7823 9.33518 14.3345 9.33518H14.6678C15.0359 9.33518 15.3343 9.03678 15.3343 8.66862C15.3343 7.56421 16.2296 6.66885 17.3341 6.66885ZM9.62633 7.62671C9.81412 7.43892 10.0693 7.33401 10.3349 7.33541H10.6682C11.0364 7.33541 11.3348 7.03693 11.3348 6.66885C11.3361 5.68076 12.0589 4.84164 13.0359 4.69408C14.0129 4.54651 14.9513 5.13465 15.2444 6.07829C14.6375 6.56722 14.2213 7.25339 14.0678 8.01736C13.2667 8.10235 12.5697 8.60308 12.2334 9.33518H10.3349C9.78272 9.33518 9.33503 8.8875 9.33503 8.3353C9.33355 8.0697 9.43846 7.81458 9.62633 7.62671Z" fill="white"/>
<path d="M27.6661 7.33559H33.6654C34.9019 7.33536 35.9235 6.37055 35.9943 5.13608C36.0651 3.90162 35.1605 2.82635 33.9321 2.6848C33.622 1.12514 32.2533 0.00183105 30.6632 0.00183105C29.0731 0.00183105 27.7043 1.12514 27.3943 2.6848C26.1649 2.82643 25.2599 3.90333 25.3322 5.13874C25.4043 6.37422 26.4286 7.33825 27.6661 7.33559ZM26.9575 4.29399C27.1453 4.10612 27.4004 4.00121 27.6661 4.0027H27.9994C28.3676 4.0027 28.666 3.70429 28.666 3.33613C28.666 2.23173 29.5614 1.33636 30.6658 1.33636C31.7702 1.33636 32.6655 2.23173 32.6655 3.33613C32.6655 3.70429 32.9639 4.0027 33.3321 4.0027H33.6654C34.0226 4.0027 34.3528 4.1933 34.5313 4.50264C34.7099 4.81198 34.7099 5.19319 34.5313 5.50252C34.3528 5.81186 34.0226 6.00247 33.6654 6.00247H27.6661C27.2607 6.00372 26.8947 5.76007 26.7394 5.38566C26.5841 5.01117 26.6703 4.57997 26.9575 4.29399Z" fill="white"/>
</svg>
