<svg width="40" height="40" viewBox="0 0 40 40" fill="white" xmlns="http://www.w3.org/2000/svg">
<g clip-path="url(#clip0_65_3354)">
<path d="M35.3258 29.7021L33.935 25.0654C33.6046 23.9654 32.611 23.226 31.4628 23.226H30.7215L28.2087 18.2009C27.7686 17.3217 26.884 16.7745 25.9002 16.7745H22.2338L15.1992 1.30005C14.841 0.510305 14.0494 0.000610352 13.1831 0.000610352C11.9611 0.000610352 10.9676 0.994168 10.9676 2.24131C10.9676 2.35472 10.9862 2.46844 11.0044 2.58121H4.81343L4.2316 1.30005C3.87343 0.510305 3.08179 0.000610352 2.2155 0.000610352C0.993558 0.000610352 0 0.994168 0 2.24131C0 2.55538 0.0683583 2.87229 0.198775 3.15801L6.97475 18.0648H4.51606C3.4491 18.0648 2.5806 18.9333 2.5806 20.0003V30.9679C2.5806 32.0348 3.4491 32.9033 4.51606 32.9033H5.19397C5.17286 33.1156 5.16121 33.3305 5.16121 33.5485C5.16121 37.1059 8.05525 40 11.6127 40C14.496 40 16.9425 38.0982 17.7669 35.4839H29.722C30.0414 38.0258 32.2119 40 34.8388 40C37.6846 40 40 37.6846 40 34.8388C39.9994 32.1577 37.9433 29.9491 35.3258 29.7021V29.7021ZM32.6989 25.4356L33.9936 29.7532C32.7156 29.9645 31.5944 30.644 30.8157 31.613H28.3866V28.3872H27.0963V31.613H25.806V28.3872H24.5157V31.613H23.2254V28.3872H21.9351V31.613H20.6448V28.3872H19.3545V31.613H17.7669C17.1667 29.7091 15.7029 28.1904 13.8405 27.5014L14.8983 25.2557C15.11 24.8068 15.5687 24.5163 16.0655 24.5163H31.4621C32.037 24.5163 32.5338 24.8862 32.6989 25.4356V25.4356ZM6.86638 7.09727H12.9566L17.6525 17.4301C17.1185 17.9029 16.7739 18.5862 16.7739 19.3551V20.3137L16.4016 19.3208C16.1203 18.5695 15.392 18.0648 14.5893 18.0648H11.8521L6.86638 7.09727ZM25.806 23.226V20.6454H27.0963V23.226H25.806ZM24.5157 23.226H23.2254V20.6454H24.5157V23.226ZM28.3866 23.226V21.4427L29.2781 23.226H28.3866ZM27.0544 18.7777L27.3427 19.3551H23.2254C22.5138 19.3551 21.9351 19.9338 21.9351 20.6454V23.226H18.0642V19.3551C18.0642 18.6435 18.6429 18.0648 19.3545 18.0648H25.9002C26.392 18.0648 26.8346 18.3383 27.0544 18.7777ZM19.3545 16.7745C19.1643 16.7745 18.9797 16.7985 18.801 16.8379L14.3738 7.09727H16.417L20.8159 16.7745H19.3545ZM12.2579 2.21611C12.2579 1.70642 12.6734 1.29091 13.1831 1.29091C13.545 1.29091 13.8745 1.50386 14.0248 1.83337L14.3644 2.58121H12.3262C12.2837 2.47285 12.2579 2.35535 12.2579 2.21611ZM14.9506 3.87152L15.8308 5.80697H6.27983L5.40062 3.87152H14.9506ZM1.2903 2.21611C1.2903 1.70642 1.70581 1.29091 2.2155 1.29091C2.57745 1.29091 2.90696 1.50386 3.05722 1.83337L12.176 21.8938C12.2295 22.0126 12.2579 22.1443 12.2579 22.3008C12.2579 22.8105 11.8424 23.226 11.3327 23.226C10.9707 23.226 10.6412 23.0131 10.4909 22.6836L1.37284 2.62311C1.31865 2.50435 1.2903 2.37299 1.2903 2.21611V2.21611ZM4.51606 31.613C4.16009 31.613 3.87091 31.3241 3.87091 30.9679V20.0003C3.87091 19.6443 4.16009 19.3551 4.51606 19.3551H7.56131L9.31657 23.2169C9.67474 24.0067 10.4664 24.5163 11.3327 24.5163C12.5546 24.5163 13.5482 23.5228 13.5482 22.2756C13.5482 21.9616 13.4798 21.644 13.3494 21.3589L12.4384 19.3551H14.5893C14.8564 19.3551 15.099 19.5237 15.1932 19.7738L16.4882 23.226H16.0661C15.0719 23.226 14.1552 23.8066 13.7321 24.706L12.5675 27.1757C12.2547 27.1291 11.9378 27.0969 11.6127 27.0969C8.72938 27.0969 6.28298 28.999 5.45858 31.613H4.51606ZM11.6127 38.7097C8.76687 38.7097 6.45151 36.3943 6.45151 33.5485C6.45151 30.7026 8.76687 28.3872 11.6127 28.3872C14.4586 28.3872 16.7739 30.7026 16.7739 33.5485C16.7739 36.3943 14.4586 38.7097 11.6127 38.7097ZM18.0315 32.9033H30.0569C29.8918 33.3103 29.7784 33.7435 29.7214 34.1936H18.0315C18.0526 33.9813 18.0642 33.7664 18.0642 33.5485C18.0642 33.3305 18.0526 33.1156 18.0315 32.9033V32.9033ZM34.8382 38.7097C32.7033 38.7097 30.9672 36.9736 30.9672 34.8388C30.9672 32.7039 32.7033 30.9679 34.8382 30.9679C36.973 30.9679 38.7091 32.7039 38.7091 34.8388C38.7091 36.9736 36.973 38.7097 34.8382 38.7097Z" fill="white"/>
<path d="M34.8379 32.2582C33.4147 32.2582 32.2573 33.4155 32.2573 34.8388C32.2573 36.262 33.4147 37.4194 34.8379 37.4194C36.2612 37.4194 37.4185 36.262 37.4185 34.8388C37.4185 33.4155 36.2612 32.2582 34.8379 32.2582ZM34.8379 36.1291C34.1263 36.1291 33.5476 35.5504 33.5476 34.8388C33.5476 34.1272 34.1263 33.5485 34.8379 33.5485C35.5495 33.5485 36.1282 34.1272 36.1282 34.8388C36.1282 35.5504 35.5495 36.1291 34.8379 36.1291Z" fill="white"/>
<path d="M11.6126 29.6776C10.8534 29.6776 10.116 29.901 9.479 30.3215L10.1919 31.3976C10.6165 31.1163 11.1073 30.9679 11.6126 30.9679C13.0358 30.9679 14.1932 32.1253 14.1932 33.5485C14.1932 34.0538 14.0448 34.5446 13.7635 34.9686L14.8396 35.6815C15.2602 35.0452 15.4835 34.308 15.4835 33.5485C15.4835 31.4137 13.7475 29.6776 11.6126 29.6776Z" fill="white"/>
<path d="M11.6126 36.1291C10.1894 36.1291 9.032 34.9717 9.032 33.5485C9.032 33.0432 9.18037 32.5524 9.46168 32.1284L8.38559 31.4155C7.96504 32.0519 7.7417 32.7893 7.7417 33.5485C7.7417 35.6834 9.47775 37.4194 11.6126 37.4194C12.3718 37.4194 13.1092 37.1961 13.7462 36.7755L13.0333 35.6994C12.6087 35.9807 12.1179 36.1291 11.6126 36.1291Z" fill="white"/>
</g>
<defs>
<clipPath id="clip0_65_3354">
<rect width="40" height="40" fill="white"/>
</clipPath>
</defs>
</svg>
