<svg width="40" height="40" viewBox="0 0 40 40" fill="none" xmlns="http://www.w3.org/2000/svg">
<path d="M39.3268 36.6344L34.4062 24.8251C33.9879 23.821 33.2948 22.9553 32.4066 22.3274C31.5184 21.6996 30.471 21.335 29.3849 21.2757C30.3253 20.4255 31.5566 19.9697 32.8239 20.0025C34.0912 20.0353 35.2973 20.5543 36.1924 21.4519L38.308 23.5669C38.4064 23.6653 38.5348 23.728 38.6729 23.7452C38.811 23.7623 38.9508 23.7329 39.0703 23.6616C39.1898 23.5903 39.282 23.4811 39.3324 23.3514C39.3829 23.2218 39.3886 23.079 39.3487 22.9457L39.0718 22.0213C38.5781 20.3487 37.5546 18.8815 36.1553 17.8407C34.7559 16.7999 33.0564 16.2417 31.3124 16.2501C29.5672 16.2543 27.8696 16.8199 26.4705 17.8632C28.0263 14.9376 29.8051 12.1362 31.7912 9.48381C32.2956 8.81156 33.0312 8.35006 33.8559 8.18846C34.6806 8.02686 35.536 8.17662 36.2568 8.60881L38.4262 9.91069C38.5395 9.9787 38.6714 10.0091 38.803 9.99741C38.9346 9.98575 39.0592 9.93268 39.1588 9.84581C39.2583 9.75895 39.3278 9.64276 39.3572 9.51393C39.3866 9.38511 39.3744 9.25028 39.3224 9.12881L38.8124 7.92944C38.435 7.04822 37.8474 6.27295 37.1009 5.67152C36.3544 5.07008 35.4719 4.66081 34.5305 4.47953C33.5892 4.29826 32.6178 4.35052 31.7013 4.63172C30.7849 4.91293 29.9513 5.41451 29.2737 6.09256C26.9257 8.43646 25.0546 11.2136 23.7643 14.2701L22.2299 17.8951C23.3124 12.0091 25.714 6.44467 29.2543 1.61944C29.3226 1.52627 29.3637 1.41602 29.3731 1.30091C29.3825 1.1858 29.3598 1.07033 29.3075 0.967333C29.2553 0.864333 29.1755 0.777823 29.0771 0.717405C28.9787 0.656986 28.8654 0.625022 28.7499 0.62506C26.9215 0.618949 25.1219 1.08097 23.5226 1.96712C21.9232 2.85328 20.5773 4.13407 19.613 5.68756C17.7313 8.6995 16.6036 12.1208 16.3255 15.6613C16.1909 14.4561 16.2362 13.2376 16.4599 12.0457L17.8018 4.80131C17.826 4.67022 17.8076 4.53484 17.7494 4.41493C17.6911 4.29502 17.5961 4.19687 17.4781 4.13481C17.3602 4.07276 17.2254 4.05004 17.0936 4.06999C16.9618 4.08994 16.8399 4.1515 16.7455 4.24569C15.3953 5.58846 14.3248 7.18575 13.596 8.94506C12.8672 10.7044 12.4947 12.5908 12.4999 14.4951V14.5626C12.5001 15.3006 12.5565 16.0375 12.6687 16.7669L12.8837 18.1663L6.8393 1.04131C6.79142 0.904257 6.69732 0.788147 6.57316 0.712912C6.449 0.637678 6.30252 0.608012 6.15887 0.629009C6.01523 0.650006 5.88337 0.720354 5.78593 0.827978C5.6885 0.935602 5.63157 1.07379 5.62492 1.21881L5.48742 3.96881C5.26489 8.35153 6.17587 12.7176 8.13242 16.6457L1.49617 13.8007C1.36967 13.7465 1.2288 13.7355 1.09544 13.7696C0.962081 13.8036 0.843685 13.8807 0.75863 13.9889C0.673574 14.0971 0.626615 14.2304 0.625041 14.368C0.623467 14.5056 0.667365 14.6399 0.749924 14.7501L4.33492 19.5301C5.73475 21.3905 7.44326 22.9971 9.38617 24.2801C9.37938 24.3237 9.37562 24.3678 9.37492 24.4119C9.37492 24.8169 9.38992 25.2244 9.41055 25.6269H7.49992C7.33416 25.6269 7.17519 25.6928 7.05798 25.81C6.94077 25.9272 6.87492 26.0862 6.87492 26.2519V32.5001C6.87707 34.3228 7.60209 36.0702 8.89094 37.359C10.1798 38.6479 11.9272 39.3729 13.7499 39.3751H26.2499C28.0726 39.3729 29.8201 38.6479 31.1089 37.359C32.3978 36.0702 33.1228 34.3228 33.1249 32.5001V29.9294L38.238 37.2332C38.3265 37.3592 38.4584 37.4481 38.6083 37.4829C38.7583 37.5176 38.9158 37.4959 39.0507 37.4217C39.1856 37.3475 39.2884 37.2261 39.3393 37.0809C39.3903 36.9356 39.3858 36.7766 39.3268 36.6344ZM27.1099 18.9426C28.3127 18.0102 29.7906 17.5029 31.3124 17.5001C32.4198 17.495 33.5117 17.7604 34.4932 18.273C35.4748 18.7857 36.3164 19.5302 36.9449 20.4419C36.2544 19.7904 35.4236 19.306 34.5164 19.026C33.6092 18.746 32.6499 18.6778 31.7123 18.8268C30.7746 18.9758 29.8837 19.338 29.108 19.8854C28.3323 20.4328 27.6926 21.1509 27.2381 21.9844L25.2537 25.6251H22.8368L24.4555 21.9832C24.6822 21.4728 24.9164 20.9653 25.158 20.4607L27.1099 18.9426ZM27.0143 25.0088C27.8429 25.0282 28.6558 25.2391 29.3893 25.6251H26.678L27.0143 25.0088ZM24.9156 14.7588C26.1435 11.8508 27.9236 9.2085 30.1574 6.97819C30.6486 6.48713 31.2444 6.11328 31.9002 5.88452C32.556 5.65575 33.255 5.57797 33.9451 5.65698C34.6352 5.73598 35.2985 5.96973 35.8857 6.3408C36.4728 6.71187 36.9686 7.21068 37.3362 7.80006L36.8987 7.53943C35.913 6.94783 34.7429 6.74267 33.6147 6.96362C32.4865 7.18458 31.4803 7.81595 30.7905 8.73569C27.8273 12.688 25.3188 16.9617 23.3124 21.4757L21.4687 25.6251H21.4318L21.6574 22.4594L24.9156 14.7588ZM20.6724 6.35194C21.4116 5.1607 22.4062 4.14857 23.5844 3.3887C24.7626 2.62884 26.0948 2.14023 27.4849 1.95819C23.3762 7.95039 20.9392 14.9296 20.4249 22.1769L20.1793 25.6251H19.798L17.4999 19.8794V17.4163C17.499 13.5037 18.5983 9.66961 20.6724 6.35194ZM13.7499 14.4951C13.7426 11.7754 14.5787 9.12037 16.143 6.89569L15.2305 11.8207C14.7554 14.3891 15.0178 17.0397 15.9874 19.4651L18.4518 25.6251H17.8662C16.9975 23.9754 15.8986 22.4577 14.6024 21.1176L13.9037 16.5782C13.8014 15.9112 13.75 15.2374 13.7499 14.5626V14.4951ZM14.2424 23.8751C13.0022 26.4846 12.2338 29.2932 11.973 32.1707C11.0943 29.7021 10.6385 27.1029 10.6249 24.4826C10.7531 24.153 10.9614 23.8606 11.2309 23.6317C11.5004 23.4028 11.8227 23.2446 12.1687 23.1714C12.5146 23.0982 12.8734 23.1123 13.2125 23.2125C13.5516 23.3126 13.8605 23.4957 14.1112 23.7451L14.2424 23.8751ZM15.5018 24.1513C15.8351 24.6259 16.1476 25.1165 16.4393 25.6232H14.8455C15.0487 25.1251 15.2643 24.6351 15.4999 24.1532L15.5018 24.1513ZM11.7318 18.6588C11.1999 18.2838 10.6524 17.9363 10.0843 17.6169C7.73397 13.6398 6.56665 9.07477 6.7193 4.45756L11.7318 18.6588ZM5.3343 18.7782L3.15242 15.8707L7.70617 17.8219C10.0154 18.8181 12.0965 20.2759 13.8218 22.1057C13.4325 21.9545 13.0188 21.8763 12.6012 21.8751C12.0929 21.8755 11.5914 21.9913 11.1344 22.2138C10.6774 22.4363 10.2769 22.7596 9.96305 23.1594C8.18618 21.9687 6.62156 20.4883 5.3343 18.7801V18.7782ZM31.8749 32.5001C31.8733 33.9914 31.2801 35.4212 30.2256 36.4757C29.171 37.5302 27.7413 38.1234 26.2499 38.1251H13.7499C12.2586 38.1234 10.8288 37.5302 9.77428 36.4757C8.71974 35.4212 8.12658 33.9914 8.12492 32.5001V26.8751H9.5093C9.80778 29.7999 10.6314 32.647 11.9405 35.2794C12.0034 35.4056 12.107 35.5067 12.2346 35.5665C12.3622 35.6264 12.5063 35.6413 12.6434 35.609C12.7806 35.5766 12.9028 35.4989 12.9902 35.3883C13.0776 35.2778 13.1251 35.141 13.1249 35.0001V34.3401C13.1294 31.8 13.5517 29.278 14.3749 26.8751H30.9474C31.063 27.0094 31.1768 27.1463 31.2799 27.2932L31.8749 28.1438V32.5001ZM32.3043 26.5769C31.7705 25.8151 31.0825 25.174 30.2848 24.6954C29.4871 24.2168 28.5977 23.9113 27.6743 23.7988L28.3374 22.5832C28.3418 22.5744 28.348 22.5676 28.3524 22.5588C29.3599 22.3945 30.3933 22.5771 31.2834 23.0767C32.1736 23.5763 32.8678 24.3633 33.2524 25.3088L35.9549 31.7951L32.3043 26.5769Z" fill="white"/>
</svg>
